<?xml version="1.0" encoding="utf-8"?>
<!-- Generator: Adobe Illustrator 27.9.0, SVG Export Plug-In . SVG Version: 6.00 Build 0)  -->
<svg version="1.1" id="Layer_1" xmlns="http://www.w3.org/2000/svg" xmlns:xlink="http://www.w3.org/1999/xlink" x="0px" y="0px"
	 viewBox="0 0 24 24" style="enable-background:new 0 0 24 24;" xml:space="preserve">
<style type="text/css">
	.st0{fill:#FFFFFF;}
</style>
<path class="st0" d="M12,14l-2-2l2-2l2,2L12,14z M9.9,8.1L7.4,5.6L12,1l4.6,4.6l-2.5,2.5L12,6L9.9,8.1z M5.6,16.6L1,12l4.6-4.6
	l2.5,2.5L6,12l2.1,2.1L5.6,16.6z M18.4,16.6l-2.5-2.5L18,12l-2.1-2.1l2.5-2.5L23,12L18.4,16.6z M12,23l-4.6-4.6l2.5-2.5L12,18
	l2.1-2.1l2.5,2.5L12,23z"/>
</svg>
