<?xml version="1.0" encoding="utf-8"?>
<!-- Generator: Adobe Illustrator 27.9.0, SVG Export Plug-In . SVG Version: 6.00 Build 0)  -->
<svg version="1.1" id="Layer_1" xmlns="http://www.w3.org/2000/svg" xmlns:xlink="http://www.w3.org/1999/xlink" x="0px" y="0px"
	 viewBox="0 0 24 24" style="enable-background:new 0 0 24 24;" xml:space="preserve">
<style type="text/css">
	.st0{fill:#FFFFFF;}
</style>
<path class="st0" d="M5,3C3.9,3,3,3.9,3,5v14c0,1.1,0.9,2,2,2h14c1.1,0,2-0.9,2-2V5c0-1.1-0.9-2-2-2H5z M5,5h14v14H5V5z M7.8,6.3
	c-0.9,0-1.4,0.5-1.4,1.2s0.5,1.2,1.3,1.2c0.9,0,1.4-0.5,1.4-1.2S8.6,6.3,7.8,6.3z M6.5,10v7H9v-7H6.5z M11.1,10v7h2.5v-3.8
	c0-1.1,0.8-1.3,1.1-1.3c0.2,0,0.9,0.2,0.9,1.3V17H18v-3.8c0-2.2-1-3.2-2.2-3.2c-1.2,0-1.9,0.4-2.2,1v-1H11.1z"/>
</svg>
